<!-- Generator: Adobe Illustrator 24.3.0, SVG Export Plug-In  -->
<svg version="1.1" xmlns="http://www.w3.org/2000/svg" xmlns:xlink="http://www.w3.org/1999/xlink" x="0px" y="0px" width="512px"
     height="512px" viewBox="0 0 512 512" style="overflow:visible;enable-background:new 0 0 512 512;" xml:space="preserve">
<style type="text/css">
	.st0{fill:#1B84FF;}
	.st1{fill:#FFFFFF;}
</style>
    <defs>
</defs>
    <path class="st0" d="M431.5,512h-351C36,512,0,476,0,431.5v-351C0,36,36,0,80.5,0h351C476,0,512,36,512,80.5v351
	C512,476,476,512,431.5,512z"/>
    <path class="st1" d="M333,315.9l21.6-21.6c3.4-3.4,9.2-1,9.2,3.8v97.9c0,17.9-14.5,32.3-32.3,32.3H94.3C76.5,428.5,62,414,62,396.1
	V159c0-17.9,14.5-32.3,32.3-32.3h184.2c4.8,0,7.2,5.8,3.8,9.2l-21.6,21.6c-1,1-2.4,1.5-3.8,1.5H94.3v237.1h237.1v-76.5
	C331.5,318.3,332,316.9,333,315.9z M438.5,180L261.6,356.9l-60.9,6.7c-17.6,2-32.7-12.9-30.7-30.7l6.7-60.9L353.6,95.1
	c15.4-15.4,40.4-15.4,55.7,0l29.1,29.1C453.8,139.6,453.8,164.6,438.5,180L438.5,180z M371.9,200.8l-39.1-39.1L207.6,286.9l-4.9,44
	l44-4.9L371.9,200.8z M415.6,147.1L386.5,118c-2.8-2.8-7.3-2.8-10,0l-20.8,20.8l39.1,39.1l20.8-20.8
	C418.3,154.3,418.3,149.9,415.6,147.1z"/>
</svg>
